<?xml version="1.0" encoding="UTF-8" standalone="no"?>
<!-- Created with Inkscape (http://www.inkscape.org/) -->

<svg
   width="69.881516mm"
   height="69.999924mm"
   viewBox="0 0 69.881516 69.999924"
   version="1.1"
   id="svg67633"
   xmlns="http://www.w3.org/2000/svg"
   xmlns:svg="http://www.w3.org/2000/svg">
  <defs
     id="defs67630" />
  <g
     id="layer1"
     transform="translate(-87.111995,-114.74539)">
    <path
       id="circle68747"
       style="fill:#41967a;fill-opacity:1;stroke-width:7.55906;stroke:none"
       d="M 96.101562 198.33398 L 67.722656 247.48633 A 132.28346 132.28346 0 0 0 76.691406 252.38477 A 132.28346 132.28346 0 0 0 77.378906 252.71289 A 132.28346 132.28346 0 0 0 94.189453 258.98242 A 132.28346 132.28346 0 0 0 95.378906 259.33594 A 132.28346 132.28346 0 0 0 112.79883 263.12695 A 132.28346 132.28346 0 0 0 113.85156 263.26562 A 132.28346 132.28346 0 0 0 132.05859 264.56641 A 132.28346 132.28346 0 0 0 150.26562 263.26562 A 132.28346 132.28346 0 0 0 151.31836 263.12695 A 132.28346 132.28346 0 0 0 168.74414 259.33398 A 132.28346 132.28346 0 0 0 169.91992 258.98438 A 132.28346 132.28346 0 0 0 186.74023 252.71289 A 132.28346 132.28346 0 0 0 187.42188 252.38672 A 132.28346 132.28346 0 0 0 196.39648 247.48633 L 168.01953 198.33594 A 75.590549 75.590549 0 0 1 132.05859 207.87305 A 75.590549 75.590549 0 0 1 96.101562 198.33398 z "
       transform="matrix(0.26458333,0,0,0.26458333,87.111995,114.74539)" />
    <path
       id="path68855"
       style="fill:#a34e9c;fill-opacity:1.0;stroke:none;stroke-width:7.55906"
       d="M 132.05859 0 A 132.28346 132.28346 0 0 0 113.85156 1.3007812 A 132.28346 132.28346 0 0 0 112.79883 1.4394531 A 132.28346 132.28346 0 0 0 95.378906 5.2304688 A 132.28346 132.28346 0 0 0 94.189453 5.5839844 A 132.28346 132.28346 0 0 0 77.378906 11.853516 A 132.28346 132.28346 0 0 0 76.691406 12.181641 A 132.28346 132.28346 0 0 0 67.701172 17.041016 L 96.080078 66.193359 A 75.590547 75.590547 0 0 1 132.05859 56.693359 A 75.590547 75.590547 0 0 1 168.04102 66.191406 L 196.41797 17.041016 A 132.28346 132.28346 0 0 0 187.42188 12.179688 A 132.28346 132.28346 0 0 0 186.74023 11.853516 A 132.28346 132.28346 0 0 0 169.91992 5.5820312 A 132.28346 132.28346 0 0 0 168.74414 5.2324219 A 132.28346 132.28346 0 0 0 151.31836 1.4394531 A 132.28346 132.28346 0 0 0 150.26562 1.3007812 A 132.28346 132.28346 0 0 0 132.05859 0 z "
       transform="matrix(0.26458333,0,0,0.26458333,87.111995,114.74539)" />
    <path
       id="path69093"
       style="fill:#4e52a3;fill-opacity:1.0;stroke:none;stroke-width:7.55906"
       d="M 207.31836 134.16797 A 75.590547 75.590547 0 0 1 197.52148 170.08008 A 75.590547 75.590547 0 0 1 171.30469 196.48828 L 199.68164 245.64062 A 132.28346 132.28346 0 0 0 208.38672 240.28516 A 132.28346 132.28346 0 0 0 209.01367 239.85352 A 132.28346 132.28346 0 0 0 222.84961 228.42969 A 132.28346 132.28346 0 0 0 223.75 227.57617 A 132.28346 132.28346 0 0 0 235.74414 214.38477 A 132.28346 132.28346 0 0 0 236.39062 213.54297 A 132.28346 132.28346 0 0 0 246.61914 198.42578 A 132.28346 132.28346 0 0 0 254.59766 182.00781 A 132.28346 132.28346 0 0 0 255.00391 181.02734 A 132.28346 132.28346 0 0 0 260.43164 164.03906 A 132.28346 132.28346 0 0 0 260.7168 162.8457 A 132.28346 132.28346 0 0 0 263.69531 145.14258 A 132.28346 132.28346 0 0 0 263.75391 144.39062 A 132.28346 132.28346 0 0 0 264.07031 134.16797 L 207.31836 134.16797 z "
       transform="matrix(0.26458333,0,0,0.26458333,87.111995,114.74539)" />
    <path
       id="path69095"
       style="fill:#9953ad;fill-opacity:1;stroke:none;stroke-width:7.55906"
       d="M 64.435547 18.927734 A 132.28346 132.28346 0 0 0 55.728516 24.287109 A 132.28346 132.28346 0 0 0 55.105469 24.712891 A 132.28346 132.28346 0 0 0 41.263672 36.144531 A 132.28346 132.28346 0 0 0 40.373047 36.988281 A 132.28346 132.28346 0 0 0 28.375 50.183594 A 132.28346 132.28346 0 0 0 27.728516 51.025391 A 132.28346 132.28346 0 0 0 17.498047 66.142578 A 132.28346 132.28346 0 0 0 9.5214844 82.560547 A 132.28346 132.28346 0 0 0 9.1152344 83.541016 A 132.28346 132.28346 0 0 0 3.6875 100.52344 A 132.28346 132.28346 0 0 0 3.4003906 101.73047 A 132.28346 132.28346 0 0 0 0.42382812 119.42383 A 132.28346 132.28346 0 0 0 0.36523438 120.18359 A 132.28346 132.28346 0 0 0 0.078125 130.39844 L 56.833984 130.39844 A 75.590547 75.590547 0 0 1 66.595703 94.490234 A 75.590547 75.590547 0 0 1 92.8125 68.078125 L 64.435547 18.927734 z "
       transform="matrix(0.26458333,0,0,0.26458333,87.111995,114.74539)" />
    <path
       id="path69099"
       style="fill:#6853ad;fill-opacity:1;stroke:none;stroke-width:7.55906"
       d="M 0.078125 134.16797 A 132.28346 132.28346 0 0 0 0.36523438 144.39062 A 132.28346 132.28346 0 0 0 0.42382812 145.14258 A 132.28346 132.28346 0 0 0 3.4023438 162.8457 A 132.28346 132.28346 0 0 0 3.6875 164.03906 A 132.28346 132.28346 0 0 0 9.1152344 181.02734 A 132.28346 132.28346 0 0 0 9.5214844 182.00781 A 132.28346 132.28346 0 0 0 17.5 198.42578 A 132.28346 132.28346 0 0 0 27.728516 213.54297 A 132.28346 132.28346 0 0 0 28.375 214.38477 A 132.28346 132.28346 0 0 0 40.369141 227.57617 A 132.28346 132.28346 0 0 0 41.269531 228.42969 A 132.28346 132.28346 0 0 0 55.105469 239.85352 A 132.28346 132.28346 0 0 0 55.732422 240.28516 A 132.28346 132.28346 0 0 0 64.435547 245.63867 L 92.814453 196.48633 A 75.590547 75.590547 0 0 1 66.597656 170.07812 A 75.590547 75.590547 0 0 1 56.832031 134.16797 L 0.078125 134.16797 z "
       transform="matrix(0.26458333,0,0,0.26458333,87.111995,114.74539)" />
    <path
       id="path69097"
       style="fill:#de955e;fill-opacity:1;stroke:none;stroke-width:7.55906"
       d="M 199.68164 18.925781 L 171.30469 68.078125 A 75.590547 75.590547 0 0 1 197.52148 94.490234 A 75.590547 75.590547 0 0 1 207.31641 130.39844 L 264.07031 130.39844 A 132.28346 132.28346 0 0 0 263.75391 120.18359 A 132.28346 132.28346 0 0 0 263.69531 119.42383 A 132.28346 132.28346 0 0 0 260.71875 101.73047 A 132.28346 132.28346 0 0 0 260.42969 100.52344 A 132.28346 132.28346 0 0 0 255.00391 83.541016 A 132.28346 132.28346 0 0 0 254.59766 82.560547 A 132.28346 132.28346 0 0 0 246.62109 66.142578 A 132.28346 132.28346 0 0 0 236.39062 51.025391 A 132.28346 132.28346 0 0 0 235.74414 50.183594 A 132.28346 132.28346 0 0 0 223.74609 36.988281 A 132.28346 132.28346 0 0 0 222.85547 36.144531 A 132.28346 132.28346 0 0 0 209.01367 24.712891 A 132.28346 132.28346 0 0 0 208.39062 24.287109 A 132.28346 132.28346 0 0 0 199.68164 18.925781 z "
       transform="matrix(0.26458333,0,0,0.26458333,87.111995,114.74539)" />
    <path
       id="circle67987"
       style="fill:#734f96;stroke-width:2"
       d="m 140.05263,149.74532 a 18,18 0 0 1 -18,18 18,18 0 0 1 -18,-18 18,18 0 0 1 18,-18 18,18 0 0 1 18,18 z" />
    <g
       aria-label="fpm"
       id="text6734"
       style="font-weight:600;font-size:8.46667px;line-height:1.25;font-family:'Source Sans Pro';-inkscape-font-specification:'Source Sans Pro Semi-Bold';fill:#ffffff;stroke-width:0.264583">
      <path
         d="m 115.68993,151.96782 h 0.99906 v -3.36974 h 0.80434 v -0.79586 h -0.80434 v -0.42334 c 0,-0.47413 0.1778,-0.69426 0.52494,-0.69426 0.13546,0 0.2794,0.0254 0.4318,0.0677 l 0.2032,-0.71967 c -0.1778,-0.0677 -0.46567,-0.14393 -0.77047,-0.14393 -0.9906,0 -1.38853,0.64347 -1.38853,1.50707 v 0.4064 l -0.5588,0.0508 v 0.74506 h 0.5588 z"
         id="path861" />
      <path
         d="m 118.21298,153.60189 h 1.00753 v -1.2954 l -0.0339,-0.69427 c 0.3302,0.28787 0.69426,0.4572 1.0668,0.4572 0.92287,0 1.76953,-0.82127 1.76953,-2.24367 0,-1.28693 -0.60113,-2.12513 -1.63407,-2.12513 -0.4572,0 -0.89746,0.24553 -1.25306,0.54186 h -0.0254 l -0.0762,-0.44026 h -0.82127 z m 1.82033,-2.3622 c -0.23706,0 -0.52493,-0.0847 -0.8128,-0.3302 v -1.92194 c 0.31327,-0.31327 0.59267,-0.4572 0.889,-0.4572 0.61807,0 0.88901,0.4826 0.88901,1.30387 0,0.93133 -0.42334,1.40547 -0.96521,1.40547 z"
         id="path863" />
      <path
         d="m 122.99664,151.96782 h 1.00753 v -2.8956 c 0.31327,-0.34714 0.60113,-0.508 0.85513,-0.508 0.42334,0 0.62654,0.24553 0.62654,0.92286 v 2.48074 h 0.99907 v -2.8956 c 0.31326,-0.34714 0.60113,-0.508 0.85513,-0.508 0.4318,0 0.62653,0.24553 0.62653,0.92286 v 2.48074 h 1.00754 v -2.60774 c 0,-1.04986 -0.4064,-1.65946 -1.28694,-1.65946 -0.5334,0 -0.9398,0.32173 -1.33773,0.74506 -0.19473,-0.46566 -0.54187,-0.74506 -1.15147,-0.74506 -0.52493,0 -0.92287,0.3048 -1.27847,0.66886 h -0.0254 l -0.0762,-0.56726 h -0.82126 z"
         id="path865" />
    </g>
    <g
       aria-label="build"
       id="text874"
       style="font-weight:600;font-size:5.64444px;line-height:1.25;font-family:'Source Sans Pro';-inkscape-font-specification:'Source Sans Pro Semi-Bold';fill:#ffffff;stroke-width:0.264583">
      <path
         d="m 117.10234,124.28931 c 0.60312,-0.12152 1.04831,-0.76973 0.8599,-1.70484 -0.16834,-0.83552 -0.67157,-1.30416 -1.35216,-1.16704 -0.27667,0.0558 -0.52546,0.24982 -0.71219,0.49473 l -0.0682,-0.45266 -0.20291,-1.00705 -0.65845,0.13267 0.78708,3.90647 0.51459,-0.10368 0.003,-0.29999 0.0166,-0.003 c 0.27258,0.18116 0.56381,0.25491 0.81281,0.20474 z m -0.25312,-0.51327 c -0.15493,0.0312 -0.35974,0.0149 -0.57467,-0.10877 l -0.25307,-1.25605 c 0.15795,-0.24486 0.32712,-0.37683 0.52079,-0.41585 0.40393,-0.0814 0.64454,0.19833 0.75268,0.73506 0.12263,0.60866 -0.0916,0.97426 -0.44573,1.04561 z"
         style="font-size:5.64444px"
         id="path868" />
      <path
         d="m 119.71388,123.91642 c 0.38268,-0.0295 0.63285,-0.23566 0.85269,-0.54134 l 0.0169,-0.001 0.0819,0.40129 0.54588,-0.0421 -0.21368,-2.76883 -0.66407,0.0512 0.14593,1.89091 c -0.18218,0.28013 -0.33107,0.40485 -0.57306,0.42353 -0.29264,0.0226 -0.43511,-0.13626 -0.46986,-0.58648 l -0.12725,-1.64892 -0.66407,0.0512 0.13377,1.73334 c 0.0538,0.69783 0.344,1.08305 0.93491,1.03744 z"
         style="font-size:5.64444px"
         id="path870" />
      <path
         d="m 122.03119,123.74316 0.67164,0.008 0.0336,-2.77686 -0.67164,-0.008 z m 0.37796,-3.24687 c 0.23705,0.003 0.40257,-0.14754 0.4053,-0.3733 0.003,-0.22576 -0.15911,-0.38013 -0.39616,-0.383 -0.23704,-0.003 -0.40256,0.14755 -0.40529,0.37331 -0.003,0.22576 0.1591,0.38013 0.39615,0.38299 z"
         style="font-size:5.64444px"
         id="path872" />
      <path
         d="m 124.15219,123.89664 c 0.15766,0.0111 0.27185,-0.004 0.35345,-0.0374 l -0.0444,-0.49539 c -0.0458,0.008 -0.0684,0.007 -0.10214,0.004 -0.0676,-0.005 -0.13681,-0.0662 -0.12534,-0.22948 l 0.23069,-3.28261 -0.67003,-0.0471 -0.22832,3.24883 c -0.0344,0.48986 0.11876,0.80617 0.58609,0.83902 z"
         style="font-size:5.64444px"
         id="path874" />
      <path
         d="m 126.00127,124.11455 c 0.28972,0.0471 0.59453,-0.0693 0.82768,-0.23726 l 0.0223,0.004 0.002,0.30343 0.53485,0.0869 0.63889,-3.93343 -0.65743,-0.10678 -0.16017,0.98614 -0.0436,0.44467 c -0.18185,-0.21824 -0.35784,-0.36692 -0.66427,-0.41669 -0.60172,-0.0977 -1.24754,0.35777 -1.39324,1.25477 -0.1466,0.90257 0.20758,1.50335 0.89286,1.61466 z m 0.25026,-0.51976 c -0.39,-0.0633 -0.56309,-0.40597 -0.46716,-0.99654 0.0914,-0.56272 0.42802,-0.83971 0.76788,-0.78451 0.18386,0.0299 0.35309,0.11454 0.5098,0.31154 l -0.20451,1.25915 c -0.2071,0.18366 -0.39987,0.24384 -0.60601,0.21036 z"
         style="font-size:5.64444px"
         id="path876" />
    </g>
    <g
       aria-label="new"
       id="text6632"
       style="font-weight:600;font-size:5.64444px;line-height:1.25;font-family:'Source Sans Pro';-inkscape-font-specification:'Source Sans Pro Semi-Bold';fill:#ffffff;stroke-width:0.264583">
      <path
         d="m 116.68615,178.26874 0.6646,0.0973 0.27972,-1.91003 c 0.25052,-0.1915 0.42326,-0.28029 0.6634,-0.24512 0.29042,0.0425 0.39515,0.2233 0.32972,0.67009 l -0.23964,1.63637 0.65902,0.0965 0.2519,-1.72014 c 0.10142,-0.69252 -0.0966,-1.13225 -0.68859,-1.21895 -0.37419,-0.0548 -0.68288,0.10537 -0.96296,0.30394 l -0.0168,-0.002 0.004,-0.37596 -0.54173,-0.0793 z"
         style="font-size:5.64444px"
         id="path879" />
      <path
         d="m 121.00816,178.79471 c 0.36094,0.0149 0.70352,-0.0726 0.97088,-0.25357 l -0.20831,-0.42667 c -0.19688,0.11613 -0.41399,0.17494 -0.65085,0.16513 -0.43989,-0.0182 -0.72195,-0.30105 -0.77048,-0.7663 l 1.74828,0.0724 c 0.0268,-0.10058 0.0422,-0.20163 0.0478,-0.33698 0.0322,-0.77827 -0.35142,-1.33648 -1.10149,-1.36753 -0.64855,-0.0268 -1.30307,0.49968 -1.34043,1.40202 -0.0383,0.9249 0.53756,1.47977 1.30455,1.51152 z m -0.63821,-1.7777 c 0.0737,-0.41499 0.35371,-0.62937 0.66953,-0.6163 0.36094,0.0149 0.54288,0.25975 0.52607,0.6658 z"
         style="font-size:5.64444px"
         id="path881" />
      <path
         d="m 123.15718,178.75087 0.79889,-0.0647 0.17735,-1.30552 c 0.0362,-0.2521 0.063,-0.48079 0.0732,-0.84405 l 0.0225,-0.002 c 0.0798,0.35596 0.14305,0.57735 0.21937,0.82034 l 0.38524,1.25993 0.82703,-0.067 0.4794,-2.81935 -0.61886,0.0501 -0.21005,1.46107 c -0.0362,0.25211 -0.0499,0.50239 -0.0741,0.8328 l -0.0225,0.002 c -0.0771,-0.3222 -0.14777,-0.56564 -0.22971,-0.80817 l -0.46506,-1.40637 -0.67512,0.0547 -0.22131,1.46198 c -0.0362,0.2521 -0.0611,0.5033 -0.0853,0.83371 l -0.0225,0.002 c -0.0658,-0.32312 -0.13089,-0.56701 -0.20721,-0.81 l -0.44256,-1.40819 -0.66387,0.0538 z"
         style="font-size:5.64444px"
         id="path883" />
    </g>
    <g
       aria-label="install"
       id="text9444"
       style="font-weight:600;font-size:5.64444px;line-height:1.25;font-family:'Source Sans Pro';-inkscape-font-specification:'Source Sans Pro Semi-Bold';fill:#ffffff;stroke-width:0.264583">
      <path
         d="m 140.30205,131.22313 0.47234,0.47755 1.97443,-1.95287 -0.47234,-0.47755 z m 2.54968,-2.04551 c 0.16671,0.16855 0.39017,0.17776 0.5507,0.019 0.16052,-0.15877 0.15376,-0.38232 -0.0129,-0.55087 -0.16671,-0.16855 -0.39017,-0.17776 -0.5507,-0.019 -0.16052,0.15877 -0.15376,0.38232 0.0129,0.55087 z"
         style="font-size:5.64444px"
         id="path886" />
      <path
         d="m 141.34794,132.27886 0.4278,0.51784 1.48824,-1.22945 c 0.31427,0.0259 0.50196,0.0759 0.65654,0.26298 0.18693,0.22628 0.14342,0.43062 -0.20471,0.71821 l -1.27502,1.05331 0.4242,0.51349 1.34029,-1.10723 c 0.5396,-0.44577 0.68755,-0.90477 0.30649,-1.36604 -0.24086,-0.29156 -0.57726,-0.37973 -0.9182,-0.42021 l -0.0108,-0.0131 0.25486,-0.27642 -0.34871,-0.42211 z"
         style="font-size:5.64444px"
         id="path888" />
      <path
         d="m 143.68742,135.4478 c 0.38951,0.5883 0.92144,0.69643 1.32148,0.43157 0.40004,-0.26487 0.37481,-0.70172 0.26035,-1.14042 -0.0944,-0.35723 -0.13753,-0.56558 0.0319,-0.67776 0.13649,-0.0904 0.31799,-0.0616 0.47068,0.169 0.12153,0.18355 0.17723,0.39037 0.16393,0.63611 l 0.47424,0.0312 c 0.0401,-0.29732 -0.0199,-0.64348 -0.22865,-0.95881 -0.34277,-0.5177 -0.85269,-0.65395 -1.25743,-0.38597 -0.3671,0.24306 -0.3544,0.68144 -0.25552,1.09661 0.0773,0.32117 0.15152,0.59693 -0.0414,0.72469 -0.15531,0.10283 -0.34616,0.06 -0.5082,-0.18477 -0.1558,-0.23532 -0.22543,-0.49385 -0.1947,-0.80529 l -0.47736,-0.0359 c -0.0669,0.36925 0.0288,0.77971 0.24073,1.09974 z"
         style="font-size:5.64444px"
         id="path890" />
      <path
         d="m 144.97977,137.62045 c 0.10884,0.19781 0.2513,0.35136 0.38139,0.44728 l 0.35332,-0.32968 c -0.0809,-0.065 -0.14196,-0.14094 -0.18822,-0.22501 -0.12516,-0.22748 -0.0493,-0.41741 0.23261,-0.5725 l 1.14237,-0.62854 0.34012,0.61817 0.46486,-0.25577 -0.34012,-0.61816 0.75664,-0.4163 -0.26665,-0.48465 -0.79473,0.34707 -0.23646,-0.35952 -0.43519,0.23944 0.19046,0.34618 -1.14237,0.62853 c -0.52915,0.29114 -0.77093,0.69475 -0.45803,1.26346 z"
         style="font-size:5.64444px"
         id="path892" />
      <path
         d="m 145.68863,139.07005 c 0.13045,0.30026 0.38337,0.48577 0.67906,0.62809 l 0.009,0.0207 -0.25706,0.17322 0.21592,0.49699 1.50649,-0.65453 c 0.70924,-0.30815 0.96323,-0.80006 0.68882,-1.43165 -0.17544,-0.4038 -0.48819,-0.69871 -0.78567,-0.90178 l -0.30933,0.39287 c 0.23357,0.1693 0.44057,0.36246 0.54854,0.61095 0.14845,0.34168 -0.024,0.53968 -0.27835,0.6625 -0.56824,-0.99626 -1.04123,-1.32001 -1.60034,-1.07709 -0.44521,0.19343 -0.61052,0.6345 -0.41708,1.07972 z m 0.5676,-0.0251 c -0.09,-0.20708 -0.0701,-0.38802 0.14731,-0.48249 0.25885,-0.11246 0.50413,0.0271 0.88836,0.68486 l -0.5384,0.23392 c -0.25699,-0.10989 -0.4073,-0.22921 -0.49727,-0.43629 z"
         style="font-size:5.64444px"
         id="path894" />
      <path
         d="m 146.72289,141.74897 c 0.0504,0.14981 0.10774,0.24961 0.17037,0.31193 l 0.44028,-0.2314 c -0.0251,-0.0392 -0.0323,-0.0606 -0.0431,-0.0927 -0.0216,-0.0642 0.009,-0.15174 0.16369,-0.2039 l 3.11915,-1.04865 -0.21405,-0.63667 -3.08705,1.03785 c -0.46547,0.15649 -0.69861,0.41948 -0.54932,0.86354 z"
         style="font-size:5.64444px"
         id="path896" />
      <path
         d="m 147.15179,143.21884 c 0.0414,0.15252 0.0928,0.25554 0.15166,0.32144 l 0.45317,-0.205 c -0.0227,-0.0406 -0.0286,-0.0624 -0.0375,-0.0951 -0.0178,-0.0654 0.0175,-0.15097 0.17544,-0.19388 l 3.17561,-0.86273 -0.1761,-0.64819 -3.14292,0.85384 c -0.47389,0.12875 -0.72216,0.37751 -0.59933,0.82961 z"
         style="font-size:5.64444px"
         id="path898" />
    </g>
    <g
       aria-label="run"
       id="text11536"
       style="font-weight:600;font-size:5.64444px;line-height:1.25;font-family:'Source Sans Pro';-inkscape-font-specification:'Source Sans Pro Semi-Bold';fill:#ffffff;stroke-width:0.264583">
      <path
         d="m 97.732735,140.52731 0.253797,-0.6219 -1.55735,-0.63555 c -0.3301,-0.31151 -0.365738,-0.61259 -0.282561,-0.8164 0.04266,-0.10452 0.0787,-0.16297 0.131595,-0.23283 l -0.47664,-0.34083 c -0.06335,0.0656 -0.118375,0.14068 -0.171694,0.27133 -0.110903,0.27175 -0.03367,0.62028 0.224017,0.94492 l -0.0064,0.0157 -0.479083,-0.14064 -0.206876,0.50692 z"
         style="font-size:5.64444px"
         id="path901" />
      <path
         d="m 98.996138,137.87097 c 0.180252,-0.33886 0.140388,-0.66055 2.23e-4,-1.01002 l 0.008,-0.0149 0.382654,0.146 0.257123,-0.48338 -2.45178,-1.30417 -0.312789,0.58803 1.674386,0.89066 c 0.138788,0.30398 0.164233,0.49653 0.05025,0.71081 -0.13784,0.25913 -0.348306,0.29422 -0.746969,0.0822 l -1.460105,-0.77667 -0.312789,0.58803 1.534854,0.81643 c 0.617929,0.3287 1.09866,0.29032 1.376989,-0.23293 z"
         style="font-size:5.64444px"
         id="path903" />
      <path
         d="m 100.07212,135.80824 0.38496,-0.55043 -1.581882,-1.10637 c -0.05885,-0.3098 -0.06078,-0.50401 0.07833,-0.7029 0.168221,-0.24052 0.376763,-0.25309 0.746795,0.006 l 1.355238,0.94787 0.38174,-0.5458 -1.42463,-0.99639 c -0.573545,-0.40114 -1.055385,-0.4213 -1.398298,0.069 -0.216746,0.3099 -0.211983,0.65763 -0.160058,0.99702 l -0.0097,0.0139 -0.334391,-0.17188 -0.313798,0.44867 z"
         style="font-size:5.64444px"
         id="path905" />
    </g>
    <g
       aria-label="test"
       id="text12038"
       style="font-weight:600;font-size:5.64444px;line-height:1.25;font-family:'Source Sans Pro';-inkscape-font-specification:'Source Sans Pro Semi-Bold';fill:#ffffff;stroke-width:0.264583">
      <path
         d="m 95.142861,160.74395 c 0.08243,0.21019 0.203908,0.38082 0.320544,0.49272 l 0.392876,-0.28139 c -0.07182,-0.0749 -0.122613,-0.15806 -0.157645,-0.24739 -0.09479,-0.24172 0.0049,-0.42029 0.30447,-0.53775 l 1.213864,-0.47602 0.25759,0.65685 0.493953,-0.19371 -0.257589,-0.65685 0.803987,-0.31529 -0.20195,-0.51497 -0.832837,0.24172 -0.188144,-0.387 -0.462424,0.18134 0.14425,0.36784 -1.213864,0.47602 c -0.562266,0.2205 -0.854063,0.58958 -0.617081,1.19388 z"
         style="font-size:5.64444px"
         id="path908" />
      <path
         d="m 96.036757,162.71195 c 0.159382,0.32418 0.39998,0.58328 0.686758,0.73161 l 0.275223,-0.3869 c -0.19611,-0.11743 -0.351527,-0.28003 -0.456122,-0.49278 -0.194247,-0.3951 -0.08061,-0.77803 0.304868,-1.04303 l 0.772007,1.57027 c 0.101138,-0.0246 0.197295,-0.0593 0.318864,-0.11903 0.69902,-0.34367 1.005989,-0.94745 0.674773,-1.62114 -0.28639,-0.58252 -1.061714,-0.90578 -1.872172,-0.50733 -0.830719,0.40842 -1.042886,1.17944 -0.704199,1.86833 z m 1.256478,-1.41025 c 0.39974,-0.13363 0.721891,0.01 0.861351,0.29356 0.159382,0.32418 0.03131,0.601 -0.333397,0.7803 z"
         style="font-size:5.64444px"
         id="path910" />
      <path
         d="m 97.229969,164.87044 c 0.366663,0.6028 0.89405,0.73126 1.303953,0.48193 0.409904,-0.24933 0.401445,-0.68683 0.303897,-1.1296 -0.0806,-0.36059 -0.115747,-0.57044 0.05786,-0.67604 0.139849,-0.0851 0.320119,-0.0494 0.463851,0.18693 0.114399,0.18807 0.162129,0.39688 0.139412,0.64193 l 0.472699,0.0494 c 0.05145,-0.29556 0.0048,-0.64377 -0.191718,-0.96687 -0.322664,-0.53047 -0.826983,-0.68617 -1.241708,-0.4339 -0.376147,0.22879 -0.380267,0.66734 -0.297384,1.08599 0.06488,0.3239 0.128524,0.60231 -0.06919,0.72257 -0.159139,0.0968 -0.348209,0.0466 -0.500741,-0.20412 -0.146665,-0.24112 -0.206328,-0.50213 -0.163676,-0.81216 l -0.475632,-0.0542 c -0.08103,0.36641 -0.0011,0.78024 0.198382,1.10816 z"
         style="font-size:5.64444px"
         id="path912" />
      <path
         d="m 98.642453,166.97997 c 0.131532,0.18351 0.291201,0.31907 0.431749,0.39889 l 0.311722,-0.36927 c -0.08801,-0.055 -0.15768,-0.1231 -0.213581,-0.20109 -0.151262,-0.21103 -0.09844,-0.40862 0.163059,-0.59605 l 1.059748,-0.7596 0.41104,0.57345 0.43124,-0.3091 -0.41104,-0.57346 0.70192,-0.50311 -0.32226,-0.44959 -0.74795,0.43888 -0.27743,-0.32893 -0.403719,0.28937 0.230179,0.32114 -1.059749,0.7596 c -0.490881,0.35185 -0.683084,0.78129 -0.304928,1.30887 z"
         style="font-size:5.64444px"
         id="path914" />
    </g>
    <g
       aria-label="update"
       id="text15564"
       style="font-weight:600;font-size:5.64444px;line-height:1.25;font-family:'Source Sans Pro';-inkscape-font-specification:'Source Sans Pro Semi-Bold';fill:#ffffff;stroke-width:0.264583">
      <path
         d="m 142.68223,170.22634 c 0.26718,-0.27557 0.31812,-0.59569 0.28039,-0.97033 l 0.0118,-0.0121 0.32714,0.24642 0.38112,-0.39308 -1.99378,-1.93312 -0.46363,0.47818 1.3616,1.32018 c 0.049,0.33055 0.02,0.5226 -0.1489,0.69686 -0.20432,0.21072 -0.41626,0.18605 -0.74045,-0.12828 l -1.18735,-1.15122 -0.46363,0.47818 1.24813,1.21016 c 0.5025,0.48721 0.97501,0.5837 1.38757,0.1582 z"
         style="font-size:5.64444px"
         id="path917" />
      <path
         d="m 145.0819,169.14731 0.41216,-0.53036 -0.68189,-0.52993 -0.37931,-0.26619 c 0.28661,-0.056 0.52468,-0.17842 0.67708,-0.37452 0.37753,-0.4858 0.29157,-1.26745 -0.45717,-1.84933 -0.67744,-0.52647 -1.36458,-0.55293 -1.78714,-0.009 -0.18703,0.24066 -0.23789,0.57286 -0.22737,0.88128 l -0.0104,0.0134 -0.26293,-0.14 -0.33597,0.43231 z m -0.49879,-1.92456 c -0.097,0.12479 -0.25931,0.24169 -0.50632,0.29278 l -1.0117,-0.78624 c -0.0368,-0.29305 0.002,-0.49901 0.12301,-0.655 0.25284,-0.32535 0.61772,-0.27054 1.05003,0.0654 0.49025,0.38099 0.56665,0.7978 0.34498,1.08303 z"
         style="font-size:5.64444px"
         id="path919" />
      <path
         d="m 146.71247,165.13592 c 0.15358,-0.25013 0.16177,-0.57628 0.0949,-0.85577 l 0.0118,-0.0192 0.28151,0.11325 0.28354,-0.46176 -3.39588,-2.08519 -0.34852,0.56758 0.85138,0.52277 0.39476,0.20928 c -0.27097,0.0853 -0.47535,0.19164 -0.63779,0.4562 -0.31898,0.51948 -0.14295,1.28993 0.63146,1.76545 0.77923,0.47847 1.46951,0.37906 1.83279,-0.21257 z m -0.38573,-0.42894 c -0.20675,0.3367 -0.58944,0.36666 -1.0993,0.0536 -0.48582,-0.2983 -0.61417,-0.71492 -0.434,-1.00833 0.0975,-0.15873 0.24008,-0.28312 0.48184,-0.35324 l 1.08707,0.6675 c 0.0912,0.26134 0.0737,0.46252 -0.0356,0.64049 z"
         style="font-size:5.64444px"
         id="path921" />
      <path
         d="m 148.1224,162.6064 c 0.14152,-0.2952 0.11614,-0.60784 0.0301,-0.92451 l 0.01,-0.0204 0.29925,0.0809 0.23425,-0.48862 -1.48112,-0.71007 c -0.6973,-0.33429 -1.2354,-0.20418 -1.5331,0.41677 -0.19033,0.397 -0.20844,0.82649 -0.16715,1.1843 l 0.49948,-0.0234 c -0.025,-0.28739 -0.0145,-0.57032 0.10261,-0.81463 0.16104,-0.33593 0.42362,-0.33524 0.68298,-0.22341 -0.38092,1.08181 -0.31593,1.6513 0.23377,1.91483 0.43772,0.20985 0.87933,0.046 1.08918,-0.39173 z m -0.3906,-0.4126 c -0.0976,0.20359 -0.24736,0.30706 -0.46113,0.20458 -0.25449,-0.12201 -0.30957,-0.3988 -0.064,-1.11987 l 0.52934,0.25377 c 0.0852,0.2662 0.0934,0.45793 -0.004,0.66152 z"
         style="font-size:5.64444px"
         id="path923" />
      <path
         d="m 149.35751,159.72283 c 0.0805,-0.21093 0.10551,-0.41889 0.0946,-0.58015 l -0.47996,-0.0563 c 0.003,0.10374 -0.0157,0.19943 -0.0499,0.28907 -0.0926,0.24258 -0.28653,0.30751 -0.58712,0.19278 l -1.21815,-0.46495 0.2516,-0.65917 -0.4957,-0.1892 -0.25159,0.65917 -0.80683,-0.30795 -0.19725,0.51679 0.77865,0.38178 -0.12133,0.41285 0.46406,0.17713 0.14089,-0.36914 1.21815,0.46495 c 0.56425,0.21537 1.02847,0.1388 1.25994,-0.46764 z"
         style="font-size:5.64444px"
         id="path925" />
      <path
         d="m 150.02097,157.66568 c 0.10032,-0.34704 0.0968,-0.7006 -0.0155,-1.00332 l -0.46396,0.1009 c 0.066,0.21885 0.0715,0.44371 0.006,0.67145 -0.12226,0.42295 -0.46405,0.62968 -0.9275,0.56622 l 0.48591,-1.68095 c -0.0913,-0.0499 -0.1858,-0.089 -0.31594,-0.12659 -0.7483,-0.2163 -1.38171,0.0236 -1.59018,0.74482 -0.18025,0.62358 0.17559,1.38451 1.04318,1.6353 0.88928,0.25706 1.56514,-0.17038 1.77831,-0.90783 z m -1.87845,0.19732 c -0.38559,-0.17022 -0.52725,-0.49319 -0.43947,-0.79685 0.10032,-0.34704 0.38135,-0.46557 0.77177,-0.35271 z"
         style="font-size:5.64444px"
         id="path927" />
    </g>
  </g>
</svg>
